<svg width="21" height="24" viewBox="0 0 21 24" fill="none" xmlns="http://www.w3.org/2000/svg">
<path d="M20.3308 18.7033C19.9718 19.5418 19.5467 20.3136 19.0543 21.0232C18.383 21.9906 17.8334 22.6602 17.4098 23.032C16.7532 23.6424 16.0497 23.955 15.2964 23.9728C14.7556 23.9728 14.1034 23.8172 13.3442 23.5017C12.5825 23.1876 11.8825 23.032 11.2425 23.032C10.5712 23.032 9.85128 23.1876 9.08124 23.5017C8.31002 23.8172 7.68874 23.9816 7.21373 23.9979C6.49132 24.0291 5.77126 23.7076 5.05251 23.032C4.59377 22.6276 4.01997 21.9343 3.33259 20.9521C2.59508 19.9033 1.98875 18.687 1.51374 17.3004C1.00502 15.8026 0.75 14.3523 0.75 12.9482C0.75 11.3398 1.09384 9.95259 1.78254 8.79011C2.3238 7.85636 3.04386 7.11979 3.94508 6.57906C4.8463 6.03834 5.82006 5.76279 6.86872 5.74516C7.44252 5.74516 8.19497 5.92456 9.13005 6.27715C10.0625 6.63091 10.6612 6.81031 10.9237 6.81031C11.1199 6.81031 11.785 6.60054 12.9125 6.18233C13.9788 5.79449 14.8787 5.63391 15.6159 5.69716C17.6136 5.86012 19.1144 6.6561 20.1125 8.09013C18.3259 9.18432 17.4421 10.7169 17.4597 12.6829C17.4758 14.2142 18.0254 15.4886 19.1056 16.5004C19.5951 16.97 20.1418 17.333 20.75 17.5907C20.6181 17.9774 20.4789 18.3477 20.3308 18.7033V18.7033ZM15.7493 0.480137C15.7493 1.68041 15.3155 2.8011 14.4507 3.8384C13.4072 5.07155 12.145 5.78412 10.7762 5.67168C10.7588 5.52769 10.7487 5.37614 10.7487 5.21688C10.7487 4.06462 11.245 2.83147 12.1262 1.82321C12.5662 1.3127 13.1258 0.888228 13.8044 0.549615C14.4815 0.216055 15.122 0.031589 15.7244 0C15.742 0.160458 15.7493 0.320926 15.7493 0.480121V0.480137Z" fill="#DEDEDF"/>
</svg>
