<svg width="24" height="24" viewBox="0 0 24 24" xmlns="http://www.w3.org/2000/svg">
<path d="M23.4078 13.4976L14.2327 23.2609C13.7814 23.7277 13.1798 24 12.5405 24C11.9013 24 11.2996 23.7277 10.8484 23.2609C9.94595 22.2885 9.94595 20.7909 10.8484 19.8379L15.8872 14.47H2.40658C1.07168 14.47 0 13.3614 0 12C0 10.6386 1.07168 9.52998 2.40658 9.52998H15.8872L10.8484 4.16207C9.94595 3.20908 9.94595 1.69206 10.8484 0.73906C11.2996 0.252836 11.9013 0 12.5405 0C13.1798 0 13.7814 0.252836 14.2327 0.73906L23.4078 10.5024C24.1974 11.3387 24.1974 12.6613 23.4078 13.4976Z" />
</svg>
