<svg width="27" height="26" viewBox="0 0 27 26" fill="none" xmlns="http://www.w3.org/2000/svg">
<path d="M2 5.53857H24.1538" stroke="#FF564B" stroke-width="4" stroke-linecap="round" stroke-linejoin="round"/>
<path d="M5.69238 5.53857V21.8334C5.69238 23.0301 6.66243 24.0001 7.85905 24.0001H18.2949C19.4916 24.0001 20.4616 23.0301 20.4616 21.8334V5.53857" stroke="#FF564B" stroke-width="4" stroke-linecap="round" stroke-linejoin="round"/>
<mask id="path-3-inside-1_67_279" fill="white">
<path d="M9.38477 3.69231C9.38477 1.6531 11.0379 0 13.0771 0V0C15.1163 0 16.7694 1.6531 16.7694 3.69231V3.69231H9.38477V3.69231Z"/>
</mask>
<path d="M12.7694 3.69231C12.7694 5.90145 14.5602 7.69231 16.7694 7.69231C18.9785 7.69231 20.7694 5.90145 20.7694 3.69231H12.7694ZM9.38477 -0.307692C7.17563 -0.307692 5.38477 1.48317 5.38477 3.69231C5.38477 5.90145 7.17563 7.69231 9.38477 7.69231V-0.307692ZM16.7694 3.69231V7.69231C18.9785 7.69231 20.7694 5.90145 20.7694 3.69231L16.7694 3.69231ZM9.38477 3.69231H5.38477C5.38477 5.90145 7.17563 7.69231 9.38477 7.69231V3.69231ZM16.7694 -0.307692H9.38477V7.69231H16.7694V-0.307692ZM13.0771 4C12.9071 4 12.7694 3.86224 12.7694 3.69231H20.7694C20.7694 -0.556036 17.3254 -4 13.0771 -4V4ZM13.0771 -4C8.82873 -4 5.38477 -0.556036 5.38477 3.69231H13.3848C13.3848 3.86224 13.247 4 13.0771 4V-4Z" fill="#FF564B" mask="url(#path-3-inside-1_67_279)"/>
</svg>
