<svg width="24.2" height="22" viewBox="0 0 27 24" xmlns="http://www.w3.org/2000/svg">
<path d="M13.8628 0.0163307C6.18426 -0.364353 -0.227227 5.96123 0.00617829 13.685C0.132408 17.8271 2.14731 21.4927 5.2173 23.839C5.2173 23.839 5.21968 23.839 5.22206 23.8414C5.48166 24.0401 5.83654 24.0521 6.11043 23.8749C8.15868 22.5605 10.5904 21.7991 13.2007 21.7991C15.811 21.7991 18.2451 22.5605 20.2957 23.8773C20.5696 24.0521 20.9221 24.0401 21.1793 23.8414H21.1841C24.3541 21.4136 26.4 17.5829 26.4 13.2708C26.4 6.16474 20.8435 0.36589 13.8628 0.0163307ZM19.7051 14.3267C19.1787 16.4025 17.0328 18.5597 14.9679 19.0888C9.89017 20.3889 5.40307 15.8806 6.69632 10.7736C7.22267 8.69784 9.36857 6.54063 11.4335 6.01151C16.5136 4.71143 20.9983 9.21979 19.7051 14.3267Z" />
</svg>
