<svg width="27" height="24" viewBox="0 0 27 24" xmlns="http://www.w3.org/2000/svg">
<path fill-rule="evenodd" clip-rule="evenodd" d="M22.5333 7.29717C23.0303 7.96295 22.896 8.90746 22.2333 9.4068L14.9999 14.8567C13.2222 16.1962 10.7777 16.1962 8.99991 14.8567L1.76659 9.40686C1.10385 8.90753 0.969536 7.96301 1.46659 7.29723C1.96365 6.63145 2.90385 6.49652 3.56659 6.99586L10.7999 12.4457C11.511 12.9815 12.4888 12.9815 13.1999 12.4457L20.4333 6.9958C21.096 6.49647 22.0362 6.63139 22.5333 7.29717Z" />
<path fill-rule="evenodd" clip-rule="evenodd" d="M12.4047 3.11911C12.153 2.97864 11.847 2.97864 11.5953 3.11911L3.42863 7.67695C3.16408 7.82459 3 8.10473 3 8.40875V17.5777C3 18.04 3.3731 18.4148 3.83333 18.4148H20.1667C20.6269 18.4148 21 18.04 21 17.5777V8.40875C21 8.10472 20.8359 7.8246 20.5714 7.67695L12.4047 3.11911ZM10.1384 0.484609C11.2961 -0.161536 12.7039 -0.161537 13.8616 0.484609L22.0283 5.04245C23.2452 5.72163 24 7.01023 24 8.40875V17.5777C24 19.7045 22.2838 21.4286 20.1667 21.4286H3.83333C1.71624 21.4286 0 19.7045 0 17.5777V8.40875C0 7.01023 0.754751 5.72163 1.9717 5.04245L10.1384 0.484609Z" />
</svg>
