<svg width="24" height="24" viewBox="0 0 24 24" fill="none" xmlns="http://www.w3.org/2000/svg">
<path d="M5.3189 14.5036L4.48349 17.6223L1.43011 17.6868C0.517593 15.9943 0 14.0579 0 12.0001C0 10.0102 0.483937 8.13373 1.34175 6.48145H1.3424L4.06078 6.97982L5.25159 9.68186C5.00235 10.4085 4.86651 11.1885 4.86651 12.0001C4.8666 12.881 5.02617 13.7249 5.3189 14.5036Z" fill="#FBBB00"/>
<path d="M23.7902 9.7583C23.928 10.4842 23.9998 11.2339 23.9998 12C23.9998 12.8592 23.9095 13.6972 23.7374 14.5055C23.1533 17.2563 21.6269 19.6582 19.5124 21.358L19.5118 21.3574L16.0878 21.1827L15.6032 18.1576C17.0063 17.3348 18.1028 16.0471 18.6804 14.5055H12.2637V9.7583H18.774H23.7902Z" fill="#518EF8"/>
<path d="M19.5114 21.3572L19.5121 21.3579C17.4556 23.0108 14.8433 23.9998 11.9996 23.9998C7.42968 23.9998 3.45651 21.4456 1.42969 17.6867L5.31848 14.5034C6.33187 17.208 8.94088 19.1333 11.9996 19.1333C13.3143 19.1333 14.546 18.7779 15.6028 18.1574L19.5114 21.3572Z" fill="#28B446"/>
<path d="M19.6596 2.76261L15.7721 5.94521C14.6783 5.2615 13.3853 4.86653 12 4.86653C8.87212 4.86653 6.21431 6.88013 5.25168 9.68169L1.34245 6.48127H1.3418C3.33895 2.63075 7.36223 0 12 0C14.9117 0 17.5813 1.03715 19.6596 2.76261Z" fill="#F14336"/>
</svg>
