<svg width="24" height="24" viewBox="0 0 24 24" xmlns="http://www.w3.org/2000/svg">
<path fill-rule="evenodd" clip-rule="evenodd" d="M2.47358 4.33784L1.58242 3.44898C1.00429 2.87233 1.00429 1.93741 1.58242 1.36076C2.16056 0.784116 3.0979 0.784116 3.67603 1.36076L19.5498 17.1936C20.1279 17.7702 20.1279 18.7052 19.5498 19.2818C18.9716 19.8584 18.0343 19.8584 17.4561 19.2818L16.0832 17.9124C14.8028 18.3493 13.4293 18.5865 12 18.5865C6.63075 18.5865 2.04926 15.2397 0.230339 10.5292C-0.0767791 9.73391 -0.07678 8.85259 0.230338 8.05725C0.76005 6.68547 1.52405 5.42934 2.47358 4.33784ZM13.383 15.2191C12.9317 15.286 12.4699 15.3206 12 15.3206C8.02959 15.3206 4.63425 12.8474 3.28584 9.35544C3.27046 9.31559 3.27046 9.27091 3.28584 9.23106C3.64982 8.28846 4.16296 7.42009 4.79629 6.65456L7.08463 8.93701C7.07526 9.05448 7.07049 9.17324 7.07049 9.29311C7.07049 11.7396 9.05889 13.7229 11.5117 13.7229C11.6319 13.7229 11.751 13.7181 11.8687 13.7088L13.383 15.2191ZM10.7221 4.93315L15.8829 10.0807C15.9289 9.82512 15.9529 9.56191 15.9529 9.29311C15.9529 6.84662 13.9645 4.86334 11.5117 4.86334C11.2422 4.86334 10.9783 4.88728 10.7221 4.93315ZM20.7142 9.35544C20.2236 10.6257 19.4622 11.7612 18.5008 12.6919L20.8159 15.001C22.0981 13.7499 23.1136 12.2283 23.7697 10.5292C24.0768 9.73391 24.0768 8.85259 23.7697 8.05725C21.9507 3.34683 17.3693 0 12 0C10.1711 0 8.4336 0.388316 6.86555 1.08657L9.4135 3.62795C10.235 3.39216 11.1028 3.26586 12 3.26586C15.9704 3.26586 19.3657 5.73912 20.7142 9.23106C20.7295 9.27091 20.7295 9.31559 20.7142 9.35544Z" />
</svg>
