<svg width="8" height="24" viewBox="0 0 8 24" xmlns="http://www.w3.org/2000/svg">
<path fill-rule="evenodd" clip-rule="evenodd" d="M2.0941 3.96701C2.54374 5.0335 3.59287 5.7238 4.75041 5.71424C5.50619 5.71265 6.23004 5.41137 6.761 4.87413C7.29353 4.33847 7.5885 3.61154 7.58371 2.85746C7.58371 1.70004 6.88537 0.655826 5.81391 0.215834C4.74405 -0.225749 3.51315 0.0229586 2.6968 0.84556C1.88204 1.66816 1.64445 2.90047 2.0941 3.96701ZM1.60365 23.9999H3.14045C4.44232 23.2897 5.67242 22.4597 6.81116 21.5243C7.10806 21.2897 7.38868 21.033 7.64645 20.759C7.76228 20.6283 7.85853 20.4835 7.93521 20.3276C8.03799 20.1606 8.01678 19.9496 7.88464 19.8032C7.76719 19.6536 7.56163 19.5969 7.37891 19.6615V19.663C7.14478 19.7384 6.8833 19.841 6.66124 19.9281C6.58622 19.9575 6.5157 19.9852 6.45225 20.0095C6.36599 20.043 6.28089 20.0791 6.19583 20.1152C6.0331 20.1843 5.8705 20.2533 5.70016 20.3039C5.60717 20.3528 5.49134 20.3449 5.40651 20.2819C5.32331 20.2189 5.28578 20.1134 5.31189 20.0126C5.36409 19.567 5.44566 19.1261 5.55497 18.6915V18.6899C6.23689 16.0305 6.91882 13.3566 7.60074 10.6685C7.78672 10.0938 7.70026 9.46859 7.36582 8.96154C7.02974 8.45292 6.47833 8.11434 5.85839 8.0356C5.49295 7.96317 5.11119 8.00096 4.76859 8.14583C4.50756 8.23874 4.25798 8.35999 4.02632 8.50802C2.93982 9.27335 1.85817 10.0355 0.805923 10.8417C0.507351 11.1142 0.238185 11.415 0 11.7378V12.2811C0.179461 12.5047 0.500845 12.5661 0.755347 12.4259H0.756979C0.956731 12.3506 1.15224 12.2646 1.34833 12.1783C1.49659 12.113 1.64518 12.0476 1.7962 11.9866C1.94953 11.9173 2.10941 11.8654 2.27582 11.8291C2.37533 11.7898 2.4879 11.8087 2.56784 11.878C2.64778 11.9457 2.68041 12.0527 2.65104 12.152C2.61025 12.5456 2.54011 12.9361 2.44222 13.3219C2.0812 14.7614 1.7145 16.1996 1.34778 17.638C1.00686 18.9751 0.665933 20.3123 0.329539 21.6505C0.0570696 22.5953 0.569348 23.5874 1.51556 23.948C1.54655 23.9606 1.57592 23.9779 1.60365 23.9999Z" />
</svg>
