<svg width="19" height="24" viewBox="0 0 19 24" xmlns="http://www.w3.org/2000/svg">
<path d="M9.75 0C4.77429 0 0.75 3.85824 0.75 8.62866C0.75 13.7689 6.43286 20.8567 8.77286 23.5562C9.28714 24.1479 10.2257 24.1479 10.74 23.5562C13.0671 20.8567 18.75 13.7689 18.75 8.62866C18.75 3.85824 14.7257 0 9.75 0ZM9.75 11.7103C7.97571 11.7103 6.53571 10.3297 6.53571 8.62866C6.53571 6.92758 7.97571 5.54699 9.75 5.54699C11.5243 5.54699 12.9643 6.92758 12.9643 8.62866C12.9643 10.3297 11.5243 11.7103 9.75 11.7103Z" />
</svg>
