<svg width="12" height="24" viewBox="0 0 12 24" fill="none" xmlns="http://www.w3.org/2000/svg">
<path fill-rule="evenodd" clip-rule="evenodd" d="M6.65794 23.6108C10.0272 20.7182 12.0002 16.4952 12.0002 12C12.0002 7.51491 10.0272 3.28178 6.65794 0.389152C5.89909 -0.265974 4.71529 -0.0643973 4.1588 0.772148C3.96656 1.06444 3.8755 1.37688 3.8755 1.6994C3.8755 2.19327 4.08798 2.67705 4.49269 3.01973C7.07278 5.26732 8.59047 8.51271 8.59047 12C8.59047 15.4873 7.06266 18.773 4.45222 21.0206C3.81479 21.5648 3.66302 22.4921 4.12845 23.1875L4.14868 23.2279C4.71529 24.0644 5.89909 24.266 6.65794 23.6108ZM2.93421 17.7349C4.35073 16.1928 5.17028 14.1468 5.17028 12C5.17028 9.85322 4.35073 7.81729 2.93421 6.26515C2.20572 5.46892 0.900499 5.6201 0.293421 6.51712C0.10118 6.80941 0 7.14201 0 7.46453C0 7.86769 0.141652 8.25069 0.424955 8.56313C1.27486 9.49039 1.76053 10.7099 1.76053 12C1.76053 13.2901 1.27486 14.5097 0.424955 15.4369C-0.0910617 16.0013 -0.131534 16.858 0.293421 17.493C0.627314 17.9969 1.1838 18.259 1.73017 18.259C2.17536 18.259 2.61044 18.0877 2.93421 17.7349Z" fill="#68D272"/>
</svg>
