<svg width="27" height="24" viewBox="0 0 27 24" xmlns="http://www.w3.org/2000/svg">
<path fill-rule="evenodd" clip-rule="evenodd" d="M17.8908 0.834083C18.989 -0.278027 20.7775 -0.278028 21.8757 0.834083L23.5673 2.54706C24.1494 3.13651 24.1434 4.08624 23.554 4.66833C22.9645 5.25043 22.0148 5.24446 21.4327 4.65501L19.8833 3.08598L18.0415 4.95104L19.5761 6.50507C20.1582 7.09452 20.1522 8.04425 19.5628 8.62635C18.9733 9.20844 18.0236 9.20247 17.4415 8.61302L15.9334 7.08581L11.3224 11.7551C11.8539 12.6675 12.1586 13.7306 12.1586 14.8628C12.1586 18.2345 9.45451 21 6.07929 21C2.70408 21 0 18.2345 0 14.8628C0 11.4911 2.70408 8.7256 6.07929 8.7256C7.23127 8.7256 8.30798 9.04985 9.22444 9.61003L17.8908 0.834083ZM6.07929 11.7256C4.39636 11.7256 3 13.1123 3 14.8628C3 16.6133 4.39636 18 6.07929 18C7.76223 18 9.15859 16.6133 9.15859 14.8628C9.15859 14.0014 8.81999 13.2265 8.27228 12.6605C7.70995 12.0794 6.93489 11.7256 6.07929 11.7256Z"/>
</svg>
