<svg width="22" height="24" viewBox="0 0 22 24" xmlns="http://www.w3.org/2000/svg">
<path d="M20.922 13.9984C20.922 13.9984 20.922 14.007 20.922 14.0156C20.7947 14.2213 20.622 14.3841 20.4311 14.4955C18.0767 10.3902 13.3495 8.48753 13.1314 8.40182C12.2041 8.04185 11.1496 8.45324 10.7587 9.32745C10.3678 10.1931 10.8042 11.1958 11.7314 11.5644C11.7678 11.5815 16.1494 13.3728 17.613 16.8953C17.7676 17.2724 17.8858 17.6581 17.9585 18.0523C17.9857 18.1723 18.0039 18.2838 18.013 18.4037C18.0221 18.4295 18.0221 18.4552 18.0221 18.4809C18.0403 18.6094 18.0494 18.7466 18.0585 18.8837C18.0676 19.1408 18.0676 19.4065 18.0585 19.6808C18.0494 19.9893 18.0039 20.2979 17.9494 20.615C17.9403 20.7007 17.9221 20.7864 17.9039 20.8721C17.8221 21.2578 17.6767 21.7549 17.4676 22.2348C16.9494 23.4004 16.0313 24.4889 14.6677 23.769C13.9768 23.3576 13.8495 22.4148 14.295 21.7806C14.6949 21.2321 14.9404 20.615 15.0404 19.9807C15.1767 19.0808 14.3404 18.3437 13.3768 18.3866C8.9315 18.6094 6.10431 15.764 3.94984 12.1472C1.64082 9.13889 -1.32272 0.88538 0.640856 0.0883119C1.78627 -0.528773 3.23168 2.23954 7.36791 3.68798C7.69517 3.82511 8.03152 3.91938 8.39515 4.02223C12.6041 5.15355 14.7949 3.68798 17.0676 4.33934C20.7675 5.59065 23.231 10.0217 20.922 13.9984Z"/>
</svg>
