<svg width="26" height="22" viewBox="0 0 26 22" fill="none" xmlns="http://www.w3.org/2000/svg">
<path d="M23.5978 3.55313L22.2 3.00897C23.5978 3.55313 23.5978 3.55327 23.5977 3.55342L23.5976 3.55378L23.5972 3.55465L23.5963 3.55704L23.5934 3.56439L23.5837 3.58909C23.5754 3.60987 23.5637 3.63917 23.5488 3.67602C23.5189 3.74966 23.4761 3.85383 23.4221 3.98083C23.3146 4.23383 23.1608 4.58238 22.9759 4.96338C22.7288 5.47274 22.3713 6.15861 21.947 6.74327C21.9517 6.83429 21.9542 6.92545 21.9545 7.01667L21.9546 7.02152C21.9545 12.6573 19.2889 16.863 15.3893 18.9837C11.522 21.0868 6.60688 21.048 2.25954 18.5803C1.65747 18.2386 1.36749 17.5292 1.55777 16.8635C1.74806 16.1979 2.36918 15.749 3.06091 15.7771C4.06513 15.8179 5.06279 15.6789 6.01068 15.372C5.09078 14.6481 4.37692 13.8351 3.83871 12.9668C2.89665 11.4471 2.54646 9.84548 2.4833 8.42571C2.42039 7.0116 2.64005 5.7451 2.86859 4.84222C2.98372 4.38737 3.10348 4.01554 3.19672 3.75206C3.24342 3.62009 3.2837 3.51462 3.31378 3.43877C3.32882 3.40082 3.34134 3.37023 3.35085 3.34737L3.36282 3.31891L3.36701 3.30911L3.36865 3.30533L3.36934 3.30372C3.36966 3.303 3.36996 3.30231 4.74545 3.90065L3.36996 3.30231C3.58744 2.80235 4.05907 2.45977 4.60177 2.40754C5.14447 2.35532 5.67278 2.60167 5.9816 3.05098C6.7243 4.13151 7.71467 5.00424 8.86215 5.59435C9.58156 5.96431 10.3493 6.21633 11.1377 6.34449C11.239 5.48111 11.5412 4.64952 12.0252 3.92095C12.6437 2.99011 13.5307 2.27051 14.5703 1.86511C15.6103 1.45955 16.7487 1.38978 17.83 1.66621C18.5424 1.84832 19.2051 2.1743 19.7815 2.61892C20.0042 2.51137 20.2448 2.38744 20.4851 2.25783C20.7501 2.11498 20.9873 1.98035 21.1584 1.88137C21.2437 1.83204 21.3119 1.79196 21.358 1.76462L21.4099 1.73372L21.4223 1.72633L21.4248 1.7248L21.4249 1.72477C21.4249 1.72474 21.4249 1.72472 21.425 1.72469M23.5978 3.55313L21.425 1.72469M23.5978 3.55313C23.8307 2.9548 23.657 2.27459 23.1657 1.86121C22.6745 1.44787 21.9747 1.39299 21.425 1.72469M23.5978 3.55313L21.425 1.72469M6.12309 4.49404C6.1231 4.49401 6.1231 4.49401 6.12308 4.49405L6.12309 4.49404Z" stroke="#50ABED" stroke-width="3" stroke-linecap="round" stroke-linejoin="round"/>
</svg>
