<svg width="21" height="24" viewBox="0 0 21 24" xmlns="http://www.w3.org/2000/svg">
<path fill-rule="evenodd" clip-rule="evenodd" d="M10.2857 3.63636C8.51119 3.63636 7.19493 5.03541 7.19493 6.60963C7.19493 8.18384 8.51119 9.58289 10.2857 9.58289C12.0602 9.58289 13.3765 8.18384 13.3765 6.60963C13.3765 5.03541 12.0602 3.63636 10.2857 3.63636ZM3.64814 6.60963C3.64814 2.89136 6.68741 0 10.2857 0C13.884 0 16.9233 2.89136 16.9233 6.60963C16.9233 10.3279 13.884 13.2193 10.2857 13.2193C6.68741 13.2193 3.64814 10.3279 3.64814 6.60963ZM4.52843 18.9527C3.93228 19.3545 3.5468 19.9356 3.5468 20.984V22.1818C3.5468 23.186 2.75282 24 1.7734 24C0.793978 24 0 23.186 0 22.1818V20.984C0 18.7245 0.97562 16.9955 2.58008 15.9141C4.08201 14.9018 5.99313 14.5455 7.85362 14.5455H12.7178C14.5783 14.5455 16.4894 14.9018 17.9914 15.9141C19.5958 16.9955 20.5714 18.7245 20.5714 20.984V22.1818C20.5714 23.186 19.7775 24 18.798 24C17.8186 24 17.0246 23.186 17.0246 22.1818V20.984C17.0246 19.9356 16.6391 19.3545 16.043 18.9527C15.3443 18.4817 14.2153 18.1818 12.7178 18.1818H7.85362C6.3561 18.1818 5.22711 18.4817 4.52843 18.9527Z" />
</svg>
