<svg width="24" height="24" viewBox="0 0 24 24" xmlns="http://www.w3.org/2000/svg">
<path fill-rule="evenodd" clip-rule="evenodd" d="M12 3.04748C7.90918 3.04748 4.41138 5.64284 3.02231 9.30641C2.99257 9.38485 2.99256 9.47229 3.02231 9.55073C4.41138 13.2143 7.90918 15.8097 12 15.8097C16.0908 15.8097 19.5886 13.2143 20.9777 9.55073C21.0074 9.47229 21.0074 9.38486 20.9777 9.30642C19.5886 5.64284 16.0908 3.04748 12 3.04748ZM0.222779 8.21108C2.04296 3.41049 6.62755 0 12 0C17.3725 0 21.957 3.4105 23.7772 8.21109C24.0743 8.9945 24.0743 9.86265 23.7772 10.6461C21.957 15.4467 17.3725 18.8571 12 18.8571C6.62755 18.8571 2.04296 15.4467 0.22278 10.6461C-0.0742592 9.86264 -0.0742603 8.9945 0.222779 8.21108Z" />
<path fill-rule="evenodd" clip-rule="evenodd" d="M12 7.90491C11.1716 7.90491 10.5 8.58711 10.5 9.42865C10.5 10.2702 11.1716 10.9524 12 10.9524C12.8284 10.9524 13.5 10.2702 13.5 9.42865C13.5 8.58711 12.8284 7.90491 12 7.90491ZM7.5 9.42865C7.5 6.90403 9.51472 4.85742 12 4.85742C14.4853 4.85742 16.5 6.90403 16.5 9.42865C16.5 11.9533 14.4853 13.9999 12 13.9999C9.51472 13.9999 7.5 11.9533 7.5 9.42865Z" />
</svg>
